<svg xmlns="http://www.w3.org/2000/svg" viewBox="0 0 2745 1830" id="Hijabbusinesspeopletalkinginmeeting">
  <path fill="#20b1c9" d="M2009.83,80.86h6.1V865.44h-6.1ZM779.74,849.23h6.1V80.86h-6.1Zm1201.55-22.48h6.1V80.86h-6.1ZM751.2,842.7h6.1V80.86h-6.1ZM2692.74,1392a21.88,21.88,0,0,0-13.24-10.58L2561,1347.54V80.86h-6.1V1345.79l-99-28.32a22,22,0,0,0-27.33,15.5l5.89,1.57a15.92,15.92,0,0,1,19.76-11.21l223.64,64a15.89,15.89,0,0,1,10.88,19.82l-85.93,290.23,5.85,1.74,85.93-290.24A21.84,21.84,0,0,0,2692.74,1392Zm-2410.1-76.37a21.85,21.85,0,0,0-16.92-2l-76,21.74V80.86h-6.1V1337.11L42.08,1377.58A22,22,0,0,0,27,1405L113,1695.24l5.85-1.73L32.87,1403.27a15.91,15.91,0,0,1,10.89-19.82l223.64-64a15.89,15.89,0,0,1,19.75,11.2l5.9-1.57A21.84,21.84,0,0,0,282.64,1315.64Z" class="colorcccccc svgShape"></path>
  <path fill="#1c9aaf" d="M1368.4,535c-1.42-9,2.12-21.07,2.27-21.58a3,3,0,1,1,5.84,1.73c0,.11-3.29,11.29-2.1,18.83.46,2.5,2,3.85,3.58,5.28s3.63,3.25,3.74,6.18-1.67,6-5.94,10.43a3,3,0,1,1-4.39-4.23c4.08-4.24,4.25-5.72,4.24-6s-1-1.22-1.71-1.86C1372,542,1369.24,539.58,1368.4,535ZM1322,491a3,3,0,0,0,4.25.68c.47-.35,11.7-8.27,23.3-.78a3.05,3.05,0,1,0,3.31-5.13c-15.18-9.8-29.6.54-30.21,1a2.77,2.77,0,0,0-.4.36,3,3,0,0,0-.62,3.2A2.88,2.88,0,0,0,1322,491ZM1168.4,817.41c3.08-11.61,5.74-21.63,7.3-29.33,4.32-21.45,12.72-42.92,25-63.83a102.92,102.92,0,0,1,47.08-42.06.08.08,0,0,1,0,0c4.42-3.82,8.78-47.15,9.91-98.64.88-40.14,6.44-91.83,9.12-116.67.85-7.94,1.47-13.67,1.57-15.57.38-7.22,7.62-20.52,10.81-26a9.83,9.83,0,0,1,4.94-16.3q2.81-.66,5.63-1.27c11-9.54,39.75-30.47,80.8-31.63,45.54-1.31,77.19,22.06,88.69,32.16l.09.09,2.86.65a9.84,9.84,0,0,1,5.41,15.78c5.32,8,14.94,29,15.28,39,.09,2.72.36,7.93.71,14.85,1.32,26,3.78,74.35,3.19,108.1-.53,30.24,2.83,91.61,8.81,96.43,7.48,2.82,15,5.78,22.23,9a4.36,4.36,0,0,1,.42.23,84.48,84.48,0,0,1,29,38c1.15,3,3.44,8.53,6.33,15.49,35.29,85,73.35,186.45,54.29,217.14-6,9.61-13.55,15.5-22.52,17.5a35.13,35.13,0,0,1-7.55.8c-19.2,0-41.36-14.4-64.65-29.54l-5.56-3.61v160.56l1.64,232.21a3,3,0,0,1-3,3.07h-.11a3,3,0,0,1-3-3l-1.64-232.23V944.27c-1.41-.89-2.81-1.78-4.22-2.65a3,3,0,0,1-1.36-1.94c-3.48-2.81-7.14-8.14-11.26-16.26a9.29,9.29,0,0,1-1.52-.95l-.24-.12a3,3,0,0,1-1.26-1.22,30.79,30.79,0,0,1-5.39-8.59c-3-1.6-6.06-3-9-4.44-11.39-5.37-23.16-10.92-33-25.56a2.79,2.79,0,0,1-.24-.45,2.87,2.87,0,0,1-.9-.84,9.47,9.47,0,0,0-2.14-2.3c-4.93-4.09-11.23-6.64-14.8-6a3.25,3.25,0,0,0-2.46,1.65,3,3,0,0,1-.43.57h0l-1.38,2.36a3,3,0,0,1-3.74,1.28,3.93,3.93,0,0,1-.43-.18,3.06,3.06,0,0,1-1.1-4.18l1.38-2.36a3.46,3.46,0,0,1,.43-.56A9.36,9.36,0,0,1,1415,867c6.24-1.14,14.38,2.8,19.69,7.21a15.13,15.13,0,0,1,3.4,3.65,2.22,2.22,0,0,1,.23.43,3,3,0,0,1,.92.88c8.89,13.24,19.4,18.2,30.53,23.44,6.74,3.18,13.72,6.46,20.75,11.69a2.94,2.94,0,0,1,.48.45,35.23,35.23,0,0,0,2.84-7.89c3.39-13.51,2-26.31-.63-28.12a72.29,72.29,0,0,1-7.28-4.63c-5-3.86-11.15-13.25-14.8-18.87l-.51-.77c-3.36-5.43-6.43-11.42-9.39-17.21-4.63-9-9-17.57-13.16-21.24-4.68-4.31-23.45-11.35-33.58-13.3-3.68-.7-7.71,1.59-13,7.44-.85,1-1.79,2-2.75,3-3,3.18-8,8.5-7.84,10.69,0,.08,0,.18.28.39,1.84,1.42,10.46-4.53,13.71-6.77,2.15-1.48,4.17-2.88,5.82-3.78,8-4.33,22.31,4.78,28.68,11.46,1.25.34,2.48.68,3.66,1a3.05,3.05,0,0,1-1.73,5.85c-15.78-4.66-30.93-6.08-36.83-3.46-2.64,1.17-4.71,4.47-5.88,8.56a6.89,6.89,0,0,1,1.3-.78c10.15-4.51,26-.18,37.52,4.24a3,3,0,1,1-2.18,5.69c-14.77-5.66-26.44-7.21-32.87-4.36-1.69.75-3.82,7.09-3.47,15.71,0,.43,0,.86.09,1.28,1.37-3.16,3.33-5.81,5.56-7.09,4.79-3.26,16.76-2.15,28.28,2.74a3.05,3.05,0,0,1-2.39,5.62c-11.19-4.76-20.56-4.62-22.66-3.19-2.55,1.47-5.59,8.51-4.53,13.33l.3,1.1c.72,2.73,1.54,5.81,3.56,7.36a2.75,2.75,0,0,1,.46.44,3,3,0,0,1-4.17,4.4c-3.37-2.58-4.66-6.61-5.52-9.81a2.75,2.75,0,0,1-.6-.67,33.48,33.48,0,0,1-4.47-15.26c0-1.21,0-2.47,0-3.75-2.41-7.51-1.68-17.3,2.06-24.1-2.75.76-5.3.66-7.4-1a6.53,6.53,0,0,1-2.65-4.74c-.4-4.89,4.62-10.22,9.48-15.36.93-1,1.83-1.94,2.66-2.86,4.62-5.13,10.9-10.84,18.68-9.35,10.19,2,30.46,9.18,36.51,14.76,5,4.39,9.6,13.43,14.5,23,2.91,5.68,5.91,11.56,9.11,16.71l.47.72c3.22,4.94,9.2,14.14,13.4,17.36a68.23,68.23,0,0,0,6.71,4.24q4.31,2.46,8.82,4.69v-12.4a170.93,170.93,0,0,1,.91-17.53l4.78-45.44a3.05,3.05,0,0,1,6.07.64l-4.78,45.44a160.37,160.37,0,0,0-.87,16.11L1523,885.77c4,1.45,8,2.79,12.11,4l1.45.43c31.44,9.19,45.79,13.39,54.37,27.9a3,3,0,0,1-1.07,4.18,3.14,3.14,0,0,1-1.55.42,3.06,3.06,0,0,1-2.63-1.5c-7.35-12.43-21-16.42-50.83-25.15l-1.46-.42c-5.67-1.66-11.2-3.56-16.57-5.66-1.4,34.85-5.58,46.53-10.19,50.36,3.29,2.1,6.57,4.23,9.84,6.35,25.3,16.45,49.18,32,67.54,27.9,7.43-1.65,13.53-6.48,18.67-14.76,19.86-32-36.28-167.16-54.73-211.58-3-7.28-5.21-12.54-6.4-15.66a80.11,80.11,0,0,0-26.49-35c-7-3.17-14.4-6.07-21.75-8.84h0l-.16-.06-7.28-2.72c-5.13-1.91-10.22-3.8-15.14-5.75l-6.85-2.71c-14.75-5.82-28.7-11.33-38.21-18.67A125.19,125.19,0,0,1,1379,673.71l-.35,0a3.05,3.05,0,0,1-.34-6.08,119.92,119.92,0,0,0,43.82-13.86q-2.51-6.56-5-13.25c-1.19-3.23-2.37-6.43-3.52-9.63a80.9,80.9,0,0,1-85.33.72c-1.22,4.09-2.65,8.13-4.26,12-1.55,3.75-3.29,7.47-5.2,11.08a72.57,72.57,0,0,0,28.4,10.3,3,3,0,1,1-.84,6,78.45,78.45,0,0,1-31.52-11.63c-9.34,6.38-22.08,11.4-35.53,16.71l-6.82,2.7c-5.49,2.3-11.75,4.7-17.69,7a96.64,96.64,0,0,0-48.94,41.5c-11.9,20.33-20.05,41.17-24.24,61.95-1.59,7.89-4.28,18-7.39,29.69-15.89,59.82-41.74,157.12,10.69,201.17-2.86-8.45-2.46-23.56,5-32.66a34.27,34.27,0,0,1,9.62-8.26,3,3,0,0,1,2.23-.29l-29.33-63a3,3,0,0,1,2.76-4.34h51.3a1.86,1.86,0,0,1,0-.34c0-.26-.57-25.72,0-44.26.54-17.88-15.48-62.36-15.64-62.81a3,3,0,1,1,5.73-2.08c.68,1.87,16.58,46,16,65.07-.55,18.38,0,43.69,0,43.94a2,2,0,0,1,0,.48H1365a3,3,0,0,1,2.88,2l54.2,155.12a3.06,3.06,0,0,1-.43,2.82,3,3,0,0,1-2.45,1.23h-.12l-176.38-6.93a3.06,3.06,0,0,1-2.66-1.79l-2-4.49a3,3,0,0,1-.17-.5c-2.5-.86-5-1.9-7.39-3l.42,16.06a542.2,542.2,0,0,1-4.23,82.53c-3.95,31-7.1,62.61-9.36,93.81-2.38,33-3.84,66.45-4.32,99.48a3.06,3.06,0,0,1-3,3h-.1a3,3,0,0,1-3-3.1c.48-33.15,1.94-66.74,4.34-99.83,2.26-31.31,5.42-63,9.39-94.14a536.42,536.42,0,0,0,4.18-81.6l-.5-19.21-1.69-.85-2.09-1-3.2-1.72c-3.59-1.94-7.2-4-10.68-6.22a79.64,79.64,0,0,1-11.78-9C1121.59,993.58,1150.88,883.33,1168.4,817.41Zm81.83,237.85c3.7-.29,8.1-2.49,12-4.44a13,13,0,0,0,4.34-3.57c-3.56,1.4-7.59,2.85-12.07,4.4a38.92,38.92,0,0,1-12.85,2.21A28.36,28.36,0,0,0,1250.23,1055.26ZM1216.47,996a3.69,3.69,0,0,1,.21.64c4.72,2.08,9.42,4,11.76,4.35,6.11,1,11.73-.11,17.17-1.19,4.87-1,9.47-1.9,14-1.19,4.83.74,7.77,2.6,8.72,5.52a7.27,7.27,0,0,1-1.94,7.12l-.25.22c-2.84,2.27-9.58,5-17.52,8a72.33,72.33,0,0,0,9.42-2.43c4.84-1.47,10.33-3.13,15.48-3.51,5.73-.25,9.23.77,11.09,3.11,2.12,2.68,1.2,6.06.9,7.18a6.8,6.8,0,0,1-2.21,3.24,6.86,6.86,0,0,1,1,1c1.37,1.78,1.67,4.12.91,7s-4.13,5.58-9.75,8.39a3,3,0,0,1-.31,1.37l-.29.57c-1.38,2.79-3.94,8-9.9,11a64.81,64.81,0,0,1-9.2,4l159.1,6.25-52-148.85H1180Zm-25.15,23.66a33,33,0,0,0,7.26,9.79l.16.15c5.08,4.86,11.64,9.05,18.3,12.79a3.22,3.22,0,0,1,1,.23c12.06,5.43,25.22,6.7,34.35,3.32,21.09-7.3,26.29-10.85,27-12.55a2.93,2.93,0,0,0,.14-1.64s-.49-.56-3.34-.6c-2,.86-4.26,1.73-6.72,2.65-1.55.57-2.92,1.08-3.93,1.51-5.27,2-12.3,4.62-18.67,5-1.1.08-2.18.12-3.27.12-8.9,0-17.76-2.44-29.52-5.68l-1.12-.31a3,3,0,1,1,1.61-5.88l1.13.31c12.62,3.47,21.73,6,30.78,5.36,5.48-.33,12-2.78,16.79-4.57,1-.41,2.42-1,4.07-1.57,3.41-1.28,11.41-4.25,12.44-6a3,3,0,0,0,.15-1.63s-.93-1-6-.82c-4.36.33-9.28,1.82-14,3.27-4.52,1.37-8.79,2.66-12.39,2.84-7.14.35-19.38-2.67-19.9-2.8a4.16,4.16,0,0,1-.62-.23,102.85,102.85,0,0,1-19.33-4.6,3.05,3.05,0,0,1,2-5.77c9.63,3.34,23.41,6.33,30.55,3.75,6.57-2.36,18.71-6.73,22-9.23a1.69,1.69,0,0,0,.36-.82s-.61-.87-3.85-1.37c-3.48-.54-7.38.24-11.89,1.14-5.7,1.14-12.16,2.42-19.37,1.23-6.38-1.07-23.38-9.51-25.3-10.47a3,3,0,1,1,2.73-5.45c.87.43,2,1,3.34,1.63l-4.42-9.5a3,3,0,0,1-1.24,1.32,28,28,0,0,0-7.88,6.79C1187.81,999.75,1188.86,1014.46,1191.32,1019.66Zm218.82-198.44a74.07,74.07,0,0,1,15.68,1c-5-2.88-10-4.42-12.16-3.23C1412.7,819.5,1411.47,820.31,1410.14,821.22ZM1511.29,881c.89.4,1.79.79,2.7,1.18l-2.7-4.8ZM1494,921.17l12.47,6.41c1.79-6.67,3.61-18.64,4.38-40.11-1.26-.54-2.51-1.09-3.75-1.66h0c-1.92-.89-3.81-1.81-5.69-2.75,1.33,7.62.29,17.83-1.57,25.25C1498.64,912.85,1496.8,918,1494,921.17Zm8,14.8c.26,0,1.19-.35,2.36-2.61l-10-5.15C1499.38,936.24,1501.81,936,1502,936ZM1310.8,557.4a1.27,1.27,0,0,1-.06.18,158,158,0,0,0,4.82,17.45,54.17,54.17,0,0,0,12.15,6.42,53.44,53.44,0,0,0,6.14,1.89,1.66,1.66,0,0,0,2-1.35l1.6-9.33a12.26,12.26,0,0,1,11.75-10.19l5-.15q7-.23,13.89-.53a5.18,5.18,0,0,1,2.88.73,5.21,5.21,0,0,0,5.18.1l0,0a5.23,5.23,0,0,1,2.63-.64l12.88.31,6.26.15a12.3,12.3,0,0,1,11.84,10.35l.31,1.94.89,5.55a1.65,1.65,0,0,0,2.14,1.33,59.95,59.95,0,0,0,17.73-9.55c2.2-6.91,3.79-14.2,5.26-21l.7-3.24a3.05,3.05,0,1,1,6,1.3l-.46,2.13c7.5-2.65,11.94-7.6,13.81-15.34,1.76-6.64.44-12.75-3.43-16-3.68-3.09-9.21-3.18-15.57-.24a3,3,0,1,1-2.55-5.54c.54-.25,1.07-.48,1.61-.7,6.56-2.62,12.76-2.62,17.64-.06.45-1.4.91-2.88,1.37-4.42a137.48,137.48,0,0,0-13.4-24.75,3,3,0,0,1-.91.22c-1,.07-2,.11-3,.11a31.39,31.39,0,0,1-13.58-2.85c-11.44-5.35-17.17-17.31-22-27.49-1.2-2.5-2.37-4.93-3.57-7.17a40.46,40.46,0,0,0-4.36-6.8,152.32,152.32,0,0,0-32-2.34c-12.48.47-21.76,2.8-26,6.38a24.63,24.63,0,0,1,11.5-1.89,3.06,3.06,0,0,1,2.74,2.05,3.28,3.28,0,0,1,.17,1.14,3.1,3.1,0,0,1-3.19,2.91c-12.76-.62-15.76,7.08-19.57,19.63a73.27,73.27,0,0,1-4.69,12.57c-2.71,5.18-6.67,9.57-13.33,11.53a3.24,3.24,0,0,1-.86.12,3.05,3.05,0,0,1-.86-6c8.58-2.52,11.16-11,13.9-20,.19-.64.39-1.28.59-1.92-3.48,4.43-7.26,8.9-11,13.31-7.79,9.2-15.15,17.9-17.82,24.15-.78,1.82-1.5,3.66-2.18,5.5.64,2.78,1.15,4.53,1.85,6.77,4.83-2.06,10.8-1.79,17.08.86.34.15.67.28,1,.44a3,3,0,1,1-2.55,5.54c-6.36-2.94-11.89-2.85-15.57.24-3.87,3.25-5.19,9.36-3.45,15.95,1.83,7.56,6.07,12.46,13.19,15.17l-.7-3.22a3.05,3.05,0,0,1,6-1.3l.7,3.24c.27,1.24.55,2.5.83,3.77A3.05,3.05,0,0,1,1310.8,557.4ZM1288.68,517a2.76,2.76,0,0,0-.08.27c0,.14-.07.28-.11.42.19-.2.39-.38.58-.57l.3-.27Zm119.09-65.43c6.3,13.17,12.86,26.77,30,26.87-5.76-7.83-11.5-14.33-16.07-19.49-5.4-6.1-8.66-9.78-9.47-12.74-.67-1.16-4.06-2.64-9.22-4C1404.65,445,1406.19,448.22,1407.77,451.52Zm-59.64,138.83a62.43,62.43,0,0,0,13.11,13.82,2.63,2.63,0,0,0,4.08-1.28l2.55-7.68c1.68-1.84,8.66-1.38,10.12.14l2.38,7.83a2.62,2.62,0,0,0,3.83,1.52,49.26,49.26,0,0,0,12.17-10.27c1.07-1.26,2-2.51,2.88-3.74a21,21,0,0,0,3.67-12v-2.21a6.85,6.85,0,0,0-7.32-6.83l-16.69,1.15a6,6,0,0,1-2.86-.51,6,6,0,0,0-5.1.1h0a6.18,6.18,0,0,1-3,.6l-17.31-1.06a6.09,6.09,0,0,0-6.47,6.09v1.47A22.6,22.6,0,0,0,1348.13,590.35Zm64,34.29c-.09-5.37,0-10.54.22-14.33-14.13,11.94-30,17.48-39.63,17.48-10.08,0-27.21-6.15-41.88-19.46.16,5,.23,11.55.05,17.72a74.87,74.87,0,0,0,81.24-1.41ZM1303.06,405a392.48,392.48,0,0,1,143,.51c-14.77-10.55-40.84-24.35-75.31-23.4C1340.22,383,1316.85,395.31,1303.06,405Zm-47.57,274c5-1.91,10.16-3.9,14.75-5.82l6.89-2.74c13.65-5.38,26.54-10.47,35.35-16.79a117.87,117.87,0,0,0,5.94-12.36,119.53,119.53,0,0,0,5.12-15.27,3.06,3.06,0,0,1,1.28-1.78c.19-8.33-.07-17.06-.32-21.3a3,3,0,0,1,.11-1,81.76,81.76,0,0,1-7.52-9.84c-4.36-6.55-7.29-14.33-9.55-22.3l-.37-.62c-1.15-2.4-1.25-2.65-.26-1.69-.75-2.8-1.42-5.61-2.05-8.39-11.11-3-18-9.9-20.62-20.56a188,188,0,0,0-1.64,33.9,3,3,0,0,1-2.83,3.25h-.21a3,3,0,0,1-3-2.84c-.1-1.49-2.22-34.52,9-66.13a3,3,0,0,1,.73-2q1-2.7,2.14-5.37c3-7.09,10.68-16.13,18.77-25.69,8.57-10.14,17.44-20.63,21.77-29.71,7-14.62,42-12.66,52.61-11.72,2.32.21,8.42.83,15,2.08l.25,0c9.52,1.83,19.94,5,21.34,10.11.44,1.59,4.36,6,8.15,10.31,16,18,45.66,51.58,43.57,102a3.1,3.1,0,0,1-3.18,2.92,3,3,0,0,1-2.92-3.17,112,112,0,0,0-1.16-21.48c-.14.73-.29,1.47-.49,2.21-2.6,10.8-9.75,17.75-21.21,20.65-2.64,11.82-6,24.38-12.53,34.2a81.28,81.28,0,0,1-9.73,12.24,3.08,3.08,0,0,1,.15,1.25c-.24,2.64-.69,11.23-.48,19.94q2.26,6.35,4.64,12.76,2.8,7.55,5.63,14.9c8.77,7.13,22.76,12.65,37.58,18.5,2.26.89,4.55,1.79,6.85,2.71,4.79,1.89,9.73,3.73,14.73,5.59-1.88-6.35-3.78-17.61-5.22-37.89-1.52-21.49-2-45.5-1.78-55.69.59-33.54-1.87-81.77-3.18-107.68-.36-7-.63-12.21-.72-14.95-.33-9.7-10.55-29.88-14.27-35.9a9.8,9.8,0,0,1-2.55.33,10,10,0,0,1-2.23-.26,373.86,373.86,0,0,0-83.23-9.71,370.13,370.13,0,0,0-85.92,9.71,9.61,9.61,0,0,1-2.25.27,9.82,9.82,0,0,1-1.8-.19c-3.54,6.15-9.79,18-10.07,23.43-.11,2.06-.7,7.57-1.6,15.91-2.66,24.75-8.21,76.27-9.08,116.15C1263.25,607.64,1261.44,658.82,1255.49,679.06Zm85.21-163.95c-3.5,0-6.14,3.07-6.14,7a7.1,7.1,0,0,0,6.14,7c3.51,0,6.14-3.07,6.14-7S1344.21,515.11,1340.7,515.11Zm-40.76,14.62a3.05,3.05,0,1,0-3.55,5,19.73,19.73,0,0,1,4.45,4.84,3.05,3.05,0,0,0,5.18-3.24A26.48,26.48,0,0,0,1299.94,529.73Zm105.23-14.62c-3.51,0-6.14,3.07-6.14,7s3.06,7,6.14,7c3.5,0,6.13-3.07,6.13-7S1408.67,515.11,1405.17,515.11Zm36.09,24.07a3,3,0,0,0,1.62.47,3.05,3.05,0,0,0,2.58-1.43,20,20,0,0,1,4.45-4.84,3,3,0,0,0-3.54-5,26.34,26.34,0,0,0-6.08,6.56A3.06,3.06,0,0,0,1441.26,539.18Zm-47.16-48.25c11.58-7.48,22.78.4,23.3.77a3,3,0,0,0,1.8.59,3,3,0,0,0,1.8-5.51c-.61-.45-15-10.78-30.2-1a3,3,0,0,0,3.3,5.13Zm2.65,87.34a3,3,0,0,0-4.22-4.4c-9.66,9.26-30.15,8.3-38.37.82a3.05,3.05,0,0,0-4.11,4.51c5.52,5,14,7.49,22.51,7.49C1381.69,586.69,1390.92,583.86,1396.75,578.27Zm30-84.08c2.49,6.7,7,14.76,14.36,14.76a3,3,0,1,0,0-6.1c-4.33,0-8.63-8.73-10.62-17.37a3,3,0,0,0-3.65-2.28,3,3,0,0,0-2,1.64,3.09,3.09,0,0,0-.24,2A60.43,60.43,0,0,0,1426.76,494.19Zm-108.61,9.16a18.82,18.82,0,0,0,3.21-8.43,3,3,0,0,0-.31-1.8,3,3,0,0,0-5.73,1,11.93,11.93,0,0,1-7.18,9.81,3,3,0,0,0,1,5.93,2.93,2.93,0,0,0,1-.16A17.48,17.48,0,0,0,1318.15,503.35ZM795,912.19c-14.74-2.14-22.1,8.1-22.41,8.54a3,3,0,0,0,.73,4.22,3,3,0,0,0,1.76.57,3.07,3.07,0,0,0,2.49-1.27c.22-.31,5.62-7.61,16.56-6a3.05,3.05,0,0,0,.87-6Zm-4.57,89.75a25.3,25.3,0,0,0,11,2.39,34.75,34.75,0,0,0,17.91-5.21A3.05,3.05,0,1,0,816,994c-6.07,3.84-15.54,6.09-23,2.48a3.05,3.05,0,1,0-2.65,5.5Zm35.48-23.56a3.06,3.06,0,0,0,1.58.64l.33,0a3,3,0,0,0,2.38-1.14c5.42-6.8,4-12.15,2.67-14.74-1.49-2.9-4.83-3.9-8.06-4.87-3-.91-6.18-1.85-8.07-4.13-1.41-1.69-2.6-6.8-3-9.89a3.05,3.05,0,0,0-6,.78c.2,1.54,1.35,9.38,4.37,13s7.46,5,11,6.08c1.53.46,4.09,1.22,4.39,1.82,1.45,2.82-.3,6-2,8.14A3.06,3.06,0,0,0,825.86,978.38Zm-37.61-90.93a3.05,3.05,0,0,0-4.26.68,3,3,0,0,0-.32.54,3.05,3.05,0,0,0,1,3.72C796.08,900.67,801,914.7,803.19,925a3.05,3.05,0,0,0,3,2.43l.16,0a2.4,2.4,0,0,0,.46,0,3.05,3.05,0,0,0,2.37-3.6C806.79,912.4,801.23,896.87,788.25,887.45Zm5.67,52.93c-2.9.39-5.41,3.69-4.79,7.39s3.13,6.44,6.43,5.93,5.41-3.69,4.79-7.4S797.23,939.87,793.92,940.38Zm-17-70.41c-10.16,2.63-13.15,17.93-14.44,24.47-6.13,31.33-8.18,124.49,22.65,155.64l.52.52a33.12,33.12,0,0,0,16,9,31.37,31.37,0,0,0,6.87.75,35.73,35.73,0,0,0,7.12-.74,3.05,3.05,0,0,0-1.22-6,27.39,27.39,0,0,1-11.44,0,25.3,25.3,0,0,1-8.32-3.58c9.15-1.63,18.56-3.55,25.46-6.24,13.53-4.92,13.9-13,11.52-31.82a3.07,3.07,0,0,0-3.41-2.65h0a3.05,3.05,0,0,0-2.61,3.4c2.49,19.6.8,22.3-7.61,25.35-7.67,3-19,5-29.32,6.81-26.84-28.92-26.47-117.23-20.19-149.31.21-1.06.49-2.5.87-4.12,1.38-5.93,4-14.3,9.11-15.61,3.41-.88,7.42.64,10.47,4a3.05,3.05,0,0,0,4.5-4.12C788.87,870.74,782.54,868.53,776.94,870Zm1077.48,66.79c-.51-.13-12.78-3.29-22.77,7.81a3.05,3.05,0,0,0,4.54,4.08c7.4-8.22,16.25-6.1,16.66-6a3.05,3.05,0,0,0,1.57-5.9Zm-18.67,70.76c.63,2.85,3,7.89,11.52,9.65a3.34,3.34,0,0,0,.62.06,3,3,0,0,0,.61-6c-2.71-.56-6.1-1.89-6.8-5-.14-.66,1.34-2.89,2.23-4.23,2.06-3.09,4.61-6.94,4.59-11.74s-4.15-11.54-5-12.85a3.06,3.06,0,0,0-3.81-1.15,1.9,1.9,0,0,0-.4.21,3,3,0,0,0-.95,4.21c1.68,2.64,4,7.35,4,9.59,0,3-1.81,5.7-3.57,8.36C1837,1001.41,1835,1004.33,1835.75,1007.52Zm-8.33-87.13a3,3,0,0,0-2.12-2.14,3.07,3.07,0,0,0-3.75,2.14,42,42,0,0,0-1.38,13.11c.49,10.75,4.56,20.91,8.54,28.4a3.06,3.06,0,0,0,4.12,1.27,2.11,2.11,0,0,0,.29-.2,3,3,0,0,0,1-3.93c-4.14-7.8-10.51-23-6.67-37A3,3,0,0,0,1827.42,920.39Zm31.39,55.73c2.5-1.56,3.44-5.62,1.54-8.88s-5.36-4.91-8.24-3.18c-2.5,1.56-3.43,5.61-1.54,8.87S1856.32,977.68,1858.81,976.12Zm8.33,55.81.4,0c8.81-1.16,19.7-6.67,24.13-16.39a3,3,0,0,0-5.55-2.53c-3.47,7.59-12.23,11.93-19.38,12.87a3,3,0,0,0,.4,6.07Zm-52.76-95.41a3.22,3.22,0,0,0,1,.18,3,3,0,0,0,1-5.91c-5.62-2.06-20.64-9.3-22.63-17.89-.77-3.31.49-6.64,3.86-10.17a3,3,0,0,0-1.8-5.11,3,3,0,0,0-2.61.9c-4.84,5.06-6.65,10.37-5.39,15.77C1791.06,927.84,1813.43,936.17,1814.38,936.52ZM1793.5,890a8.15,8.15,0,0,1,4.8-10.46q6-2.2,12-4.31a2.42,2.42,0,0,1-.07-.54c-.32-11.45,19.16-29.71,21.38-31.75,31.14-27.61,72.53-41.28,105.46-34.87,2,.39,48.69,9.63,57.56,23.51a9.91,9.91,0,0,1,1.46,3.67,8.26,8.26,0,0,1,2.61,1.44,8.1,8.1,0,0,1,2.73,8.21c4.86,5.8,40.68,49.83,48.26,97.56,8,50.54,40.76,93.49,64.66,124.84,10.6,13.92,19.7,25.87,24.92,36a56.51,56.51,0,0,1-.23-9.94c-25-24.5-30.72-66.1-34.73-95.18-3.11-22.61-15.89-136.71,37.78-163.66a51.48,51.48,0,0,1,11.41-4.13,3.05,3.05,0,0,1,3.67,2.27.88.88,0,0,1,0,.16,3,3,0,0,1-2.29,3.5,46.21,46.21,0,0,0-10.07,3.65c-50,25.09-37.48,135.49-34.48,157.37,4.24,30.74,10.49,76,39.89,97.51,11.67.4,21.51-1.95,29.27-7a41.31,41.31,0,0,0,13.37-14.32,5.43,5.43,0,0,0-.32-.62l-.12,0h0c-12.85,1.38-27.4,2.93-38,1.92-16.2-1.15-19.14-10-22.39-31.36a3,3,0,1,1,6-.92c3.5,23,6.32,25.45,16.88,26.21,10.09.94,24.33-.57,36.89-1.91h.07a5.43,5.43,0,0,1,3.93.77c10.24-24.37,5.89-61.08-2.5-94.81l-54.66,4.9c.18,6-.73,11.32-4.38,12a3.58,3.58,0,0,1-.72.07c-2.42,0-4.12-2.23-5.24-4.32-.87.6-1.74,1.15-2.56,1.67-1.93,1.24-4.34,2.77-4.53,3.73-.77,3.86,2.31,7,5,8.92a3,3,0,0,1-1.77,5.53,2.48,2.48,0,0,1-.54-.06,2.94,2.94,0,0,1-1.23-.51c-8-5.7-8.09-11.89-7.46-15.08.7-3.51,3.88-5.53,7.23-7.67,1.18-.75,2.38-1.52,3.49-2.35a86,86,0,0,1-2.71-11.15A71.35,71.35,0,0,1,2122,952.7a3,3,0,0,1,3.23-2.86,3.06,3.06,0,0,1,2.86,3.24,65.69,65.69,0,0,0,1.17,14.36c.42,2.35.88,4.45,1.36,6.32.6-2.31.51-6.15.22-9.16a69.77,69.77,0,0,0-2.33-8.74,3,3,0,0,1,1.89-3.88,3,3,0,0,1,1.91,0,3,3,0,0,1,2,1.9c.66,1.93,1.28,4.1,1.84,6.4a3.18,3.18,0,0,1,.5,1.26c0,.26.15,1.07.27,2.19.15.76.3,1.52.43,2.3.31,1.7.61,3.65.86,5.67l53.6-4.81a481.46,481.46,0,0,0-16.49-50.31,50.3,50.3,0,0,0-36.63-8.62c-3.71,10.27-4.07,21.27-3.46,29.82a3,3,0,0,1-2.82,3.26h-.22a3.2,3.2,0,0,1-1.16-.23,3.05,3.05,0,0,1-1.88-2.61c-.95-13.32.3-32.24,11.68-46.73a3,3,0,0,1,3.44-1,2.74,2.74,0,0,1,.84.45,3.05,3.05,0,0,1,.51,4.28,43,43,0,0,0-4,6.17,55.78,55.78,0,0,1,29.91,5.78c-2.47-5.89-4.58-10.5-6.07-13.41-3.48-6.82-6.83-11.49-9.8-14.51-3.16-3.22-5.9-4.56-7.9-4.56h-.1c-4.26.11-8.41,3.18-10.82,8a3.05,3.05,0,0,1-5.46-2.73c3.43-6.86,9.61-11.23,16.13-11.39,5.36-.18,13.81,3.65,23.39,22.4,2.29,4.49,5.84,12.39,9.86,22.56l0,.1c19.18,48.62,48.84,149.06,2.08,179.35a51.09,51.09,0,0,1-22.91,7.63,66.13,66.13,0,0,0,23.13,6.12,3.05,3.05,0,0,1-.25,6.09h-.25a71.87,71.87,0,0,1-27.22-7.64,66.35,66.35,0,0,1-7.85-4.81l-.2-.14c-.74-.53-1.49-1.06-2.2-1.61.21,6.55,1.77,16.75,8.85,22.31,1.91,1.5,5.11,3,9.35,4.26a3.14,3.14,0,0,1,.92.28c22.53,6.56,72.14,8.72,115.72-9.8a3,3,0,1,1,2.39,5.61c-26.22,11.14-54.35,15.26-78.13,15.27-4.89,0-9.59-.18-14.06-.5,32.26,10,91.16,18.3,154.77-21.54a3,3,0,0,1,.63-.29c52.73-18.12,30.69-145.65,18.82-188.89-12.44-43.55-31.13-75-55.53-93.39-24.21-18.62-84.83-17.65-122.88-4.35-6.11,1.88-12.7,4.69-12.76,4.72a3,3,0,0,1-4-1.6,3.18,3.18,0,0,1-.21-.79,3.05,3.05,0,0,1,1.81-3.22c.28-.12,6.94-3,13.26-4.91,39.49-13.8,102-15,128.48,5.3,25.45,19.21,44.88,51.72,57.7,96.59,11.75,42.8,30.2,149.94-6.88,186.44a41.62,41.62,0,0,1-15.5,9.75c-37.32,23.29-73.09,30.53-103.15,30.53-44.92,0-77-16.16-82.47-19.09-5.32-1.63-9.44-3.53-12-5.58-.42-.32-.81-.66-1.2-1a25.8,25.8,0,0,1-5.2-6.58,3,3,0,0,1-2.4,2.1l-.22,0-.3,0a3.06,3.06,0,0,1-3-2.76c-1-10.74-13.68-27.34-28.32-46.55-24.29-31.87-57.55-75.52-65.82-127.58-6.88-43.26-38.91-84.73-46-93.46a8.06,8.06,0,0,1-3.37,1.12A758.51,758.51,0,0,0,1804,894.83,8.17,8.17,0,0,1,1793.5,890Zm23-16.91c20.54-7,41.46-13.24,62.43-18.51a779.32,779.32,0,0,1,110.79-19.39l-.19-.33c-4.92-7.68-31.28-16.46-53.58-20.8-31.16-6.06-70.49,7.06-100.22,33.4C1828.64,854,1817.75,866.17,1816.45,873.11Zm5.33,449.9a3,3,0,1,0,2.91,5.36c.23-.13,23.32-12.43,42.39-.12a3,3,0,1,0,3.3-5.12C1848.33,1308.88,1822.85,1322.43,1821.78,1323ZM645.44,935.55a3,3,0,0,0-1.53-4c-15.51-7-26.79,2-27.26,2.34a3,3,0,0,0,1.92,5.42,3,3,0,0,0,1.91-.68c.09-.07,8.81-7,20.93-1.52A3,3,0,0,0,645.44,935.55Zm8,93.36a3.05,3.05,0,0,0,2.83-3.26,3.09,3.09,0,0,0-3.26-2.82c-12.75.89-26.72-3.22-26.86-3.26a3.06,3.06,0,0,0-2.81.57,3,3,0,0,0-1.1,2.65c0,.22,2.4,22,25,27.25a2.79,2.79,0,0,0,.7.08,2.28,2.28,0,0,0,.45,0,3,3,0,0,0,.23-6,25.6,25.6,0,0,1-19.26-17.42C635,1027.93,644.35,1029.57,653.48,1028.91Zm4.9-13.56a3.05,3.05,0,0,0,.67.07,3,3,0,0,0,1.77-.57c8-5.71,8.12-11.92,7.48-15.12-.7-3.52-3.88-5.55-7.25-7.7-3.17-2-6.45-4.11-7.89-7.4-1.14-2.56-.76-8.89-.25-12.29a3,3,0,0,0-2.06-3.33,2.12,2.12,0,0,0-.51-.13,3,3,0,0,0-3.47,2.56c-.16,1.08-1.51,10.66.71,15.65s6.62,7.81,10.19,10.09c1.94,1.24,4.36,2.78,4.55,3.74.78,3.88-2.31,7-5,9a3.05,3.05,0,0,0,1.1,5.46Zm-34.51-46.83c-.49,4.34,2.41,8.19,5.78,8.67,3.86.49,6.75-2.89,7.23-7.22s-2.41-8.2-5.78-8.68C627.24,960.81,624.35,964.18,623.87,968.52Zm0-115.19c22.07,7.65,35.25,16.75,39.17,27,4.11,10.81-2.13,22-7.63,31.8-1.27,2.26-2.45,4.39-3.47,6.42a52.58,52.58,0,0,0-8.77-17A3,3,0,0,0,639,901l-.16.1a3,3,0,0,0-.51,4.28c10.22,13,11.31,30.41,10.44,42.72a3,3,0,0,0,2.82,3.26h.22a3.27,3.27,0,0,0,.7-.09,3,3,0,0,0,2.34-2.74,91.33,91.33,0,0,0-.57-19.17,3,3,0,0,0,.54-1.29c.55-3.41,3.13-8,5.86-12.89,5.85-10.46,13.14-23.48,8-36.94-2.21-5.82-6.55-11.14-13.08-16,21.92-11.22,54-17.89,79.86-16.36,5.4.12,11.51.89,11.57.9a3,3,0,0,0,3.42-2.63,3,3,0,0,0-.15-1.36,3,3,0,0,0-2.49-2.06c-.26,0-6.49-.82-12.11-.94-27.94-1.64-63,6-85.86,18.61a128,128,0,0,0-24-10.78,3,3,0,0,0-3.6,1.29,2.91,2.91,0,0,0-.28.59A3.05,3.05,0,0,0,623.83,853.33Zm-200,50.42a8.1,8.1,0,0,0,3.34.72h.3a382.68,382.68,0,0,0,46.66-4.55c49.65-7.93,97.48-25.64,142.15-52.61a8.65,8.65,0,0,0,1.07-.78,8.14,8.14,0,0,0-9.48-13.16q-4.05,2.43-8.11,4.77a377.09,377.09,0,0,1-128.2,45.71,367.35,367.35,0,0,1-39.06,4.1,2.91,2.91,0,0,0,1-1.27c.12-.28,11.61-27.77,41.93-43.64a3.13,3.13,0,0,0,.36-.22c24.11-17.29,80.75-20,121.34-5.94l.22.07a3.05,3.05,0,0,0,2-5.76c-42.1-14.71-101.33-11.64-126.94,6.54-32.25,17-44.08,45.45-44.57,46.66A3.05,3.05,0,0,0,429,888.1l-2.17.09a8.14,8.14,0,0,0-3.05,15.56ZM302.87,1246a3.49,3.49,0,0,0,.57.2,3.23,3.23,0,0,0,.69.07,3.05,3.05,0,0,0,3-2.36c.26-1.15,27.28-115.08,97.29-129.25a3.05,3.05,0,0,0-1.21-6,81.67,81.67,0,0,0-18.31,6.07c-60.09,28-82.7,123.37-83.72,127.79A3,3,0,0,0,302.87,1246Zm81.85-150.94a3,3,0,0,0,2.6,1.46,3,3,0,0,0,2.6-4.64c-5.17-8.45,1.65-22.43,8.87-37.23,7.44-15.25,15.88-32.54,14.09-49-3.37-31.18,12-97.13,12.15-97.8a3,3,0,0,0-1.39-3.29,3,3,0,0,0-.88-.37,3,3,0,0,0-3.66,2.27c-.65,2.74-15.76,67.63-12.28,99.84,1.59,14.75-6.43,31.2-13.51,45.71-7.88,16.15-15.32,31.42-8.82,42.69ZM708.8,1413a3.05,3.05,0,0,0-3.76,2.12l-6.93,25a3.05,3.05,0,0,0,2.12,3.76,3.36,3.36,0,0,0,.82.11,3.06,3.06,0,0,0,2.94-2.23l6.93-25A3,3,0,0,0,708.8,1413ZM2166.19,929a3.05,3.05,0,0,0,1.92-5.42c-.47-.38-11.71-9.27-27.16-2.33a3,3,0,1,0,2.49,5.56c11.9-5.33,20.44,1.2,20.84,1.52A3,3,0,0,0,2166.19,929Zm-13.9,97.37c7.6,0,15.69-2.12,21.68-7.45a3,3,0,1,0-4-4.55c-7.32,6.5-18.77,7-26.86,4.63a3.05,3.05,0,1,0-1.73,5.85A39.28,39.28,0,0,0,2152.29,1026.4Zm-1.46-74.51c-3.84.48-5.76,4.32-5.28,8.64s3.84,7.2,7.68,6.72,5.76-4.32,5.28-8.64S2154.19,951.41,2150.83,951.89Zm-976.94,529-12.26-7.41a3,3,0,0,0-1.39-.44l-156.34-9.52a8.62,8.62,0,1,0-1,17.21l156.59,9.53h.28c.54,0,.72,0,13.47-3.85a3,3,0,0,0,2.15-2.54A3.06,3.06,0,0,0,1173.89,1480.93Zm-136.72,146.39-12.26-7.42a3.14,3.14,0,0,0-1.4-.43l-156.34-9.53a8.63,8.63,0,0,0-7,14.33,8.51,8.51,0,0,0,5.93,2.88l156.21,9.52.66,0c.54,0,.69,0,13.47-3.84a3.05,3.05,0,0,0,.7-5.53Zm782-92a8.63,8.63,0,0,0-9.58-7.55l-155.82,18.5-.23,0h0c-.54.1-.68.13-12.56,6.18a3.05,3.05,0,0,0,.3,5.57l13.38,5.11a2.9,2.9,0,0,0,1.09.21,2,2,0,0,0,.35,0l155.55-18.45A8.65,8.65,0,0,0,1819.2,1535.35Zm899.45,211.94a3.05,3.05,0,0,1-2.81,1.85,3,3,0,0,1-1.2-.25l-257.53-110.22h0l-164.26-70.3c-20.85,20.56-146.89,22.4-191.33,22.4-8.43,0-13.93-.07-15.2-.08-.21,0-.41,0-.62,0-3.61,0-7.45-3.12-12.25-9.88l-50.59,1.26h-.37a.76.76,0,0,0-.16,0l-.29-.06-.3-.09-.25-.11a1.59,1.59,0,0,1-.29-.15l-.21-.14a2.43,2.43,0,0,1-.25-.2l-.19-.19c-.07-.07-.13-.15-.2-.23l-.15-.23a1.74,1.74,0,0,1-.15-.26c0-.09-.08-.18-.11-.27s-.06-.15-.09-.24l-5.73,2.33a67,67,0,0,1-31.49,4.58c-4.86-.46-9.9-1-14.95-1.54l-6.05-.65,30.89,29.66a3,3,0,0,1-2,5.25L1778.38,1627h-.1a3,3,0,0,1-2.2-.93L1719,1566.69a3.08,3.08,0,0,1-.62-3.28,3,3,0,0,1,2.74-1.89l101.05-2.63a5.76,5.76,0,0,1-.37-1.19c-1.3-6.19,5-22.27,13.51-34.39,5.37-7.67,20.3-17.27,32.47-23.7a3.19,3.19,0,0,1,.84-.28,3,3,0,0,1,1.05-.58,70,70,0,0,1,23.87-3.41c8.77.29,14.72,2.17,21,4.16a99.91,99.91,0,0,0,14.35,3.69,82.29,82.29,0,0,0,27.75-.32q-.65-.93-1.32-1.83l0,0a3.48,3.48,0,0,1-.3-.5s0,0,0,0a2.75,2.75,0,0,1-.18-.46.08.08,0,0,0,0,0,2.51,2.51,0,0,1,0-.27c0-.11,0-.22,0-.33v-.13a3,3,0,0,1,0-.52,2.36,2.36,0,0,1,.12-.51l0-.09a2.83,2.83,0,0,1,.2-.43c0-.06.07-.1.1-.15a2.7,2.7,0,0,1,.25-.34.94.94,0,0,0,.1-.1,3.59,3.59,0,0,1,.35-.32h0l.1-.06a4.5,4.5,0,0,1,.41-.25l.17-.06.34-.14q4.93-1.35,9.83-2.79,2.52-.73,5-1.5c5.86-1.77,11.67-3.63,17.38-5.56,10.14-3.43,18-6.41,21.79-7.88,10.61-4.12,15.13-6.31,18.77-8.07a82.55,82.55,0,0,1,10.53-4.41c2.72-1,5.22-1.79,7.56-2.55l-88.66-37.94c-34.87,4-77.4,5-119.54,5h-8.46c-58.91-.17-70.77-11.62-72.54-13.9-2.75.18-5.39.41-7.93.66a8.57,8.57,0,0,1-2.72.45h-.47l-.36-.06c-5.6.64-10.67,1.39-15.24,2.06l-.61.09,30.35,29.14a3.08,3.08,0,0,1,.74,3.29,3,3,0,0,1-2.75,2l-212.11,7.51h-.11a3,3,0,0,1-2.2-.93l-57.1-59.43a3,3,0,0,1,2.12-5.16l114.2-3a3.42,3.42,0,0,1,.45,0l.95-1.89c-5.74-2.35-4.59-8.88-3.25-16.38.54-3,1.14-6.35,1.56-10.2.25-2.35.54-4.46.88-6.39H1158.69s0,0,0,.08c-.74,1.73-3.43,5.58-12.5,4a57.82,57.82,0,0,1-9.63-4c.67,8.63-.73,17.91-3.31,24.26l59.39.44a3.06,3.06,0,0,1,2.84,2l23.62,64.37a3,3,0,0,1-2.82,4.1l-228.17,2.86h0a3,3,0,0,1-3-3l-.39-21.14c-13.06,2.43-27.41,5-42.84,7.54-36.61,6.08-78.77,12.36-106.28,12.36-9.21,0-16.78-.71-21.94-2.36a3,3,0,0,1-2.07-3.41,3.15,3.15,0,0,1,.09-.42c0-.09.07-.17.11-.26l-.67.59-52,45.42a151.93,151.93,0,0,1-27.12,18.9c18.17,1.8,36.53,3.37,55,4.45a6.12,6.12,0,0,1,4.74,1.07,7.63,7.63,0,0,1,2.74,5.17l1.11-.13.17,0c12.33-1.58,21.64-6,28.19-9.17,1.27-.61,2.45-1.17,3.52-1.65,6.48-3.06,13.79-7.16,20.87-11.11,14-7.84,27.21-15.24,36.38-16.33,12.68-1.52,39.34,5.35,45.4,8.43,6.87,3.48,10.11,10,12.36,25,.61,4.1,1.4,7.68,2.1,10.83.16.73.32,1.44.47,2.15a3.06,3.06,0,0,1,1.38-.34h18.48l91.07.47a3.07,3.07,0,0,1,2.85,2l23.62,64.38a3.06,3.06,0,0,1-2.83,4.1l-228.16,2.85h0a3,3,0,0,1-3.05-3l-.41-22.13c-5.59,1.14-11.83,2.36-19,3.44a26.31,26.31,0,0,1-4.15.35,55.07,55.07,0,0,1-8.89-1,138.21,138.21,0,0,0-20.89-2c.08,2.66-.28,6.16-2.29,8.66a8.11,8.11,0,0,1-6.55,3h0l-250,.7h-.26a91.26,91.26,0,0,1-63-25L244.45,1663.6h0L45.15,1748.89a3,3,0,0,1-1.19.25,3,3,0,0,1-1.21-5.85l197.59-84.57,4.12-76.34c1-11.4,17.42-188.08,62.81-319.71,24.66-71.5,57.87-129.72,101.83-140.92,20.43-5.22,38.14-2.16,53.76.54,25,4.32,44.89,7.75,64.61-26.24,0-.11.12-.21.18-.32,6.27-10.88,12.52-25.56,18.91-45.21-11.47,8-25.46,12.76-42.87,12.77-1.05,0-2.11,0-3.19-.06a3,3,0,0,1,.1-6.09h.1c21.08.68,36.9-5.93,49.24-17a3,3,0,0,1,1.12-1c21.64-20.12,32.41-54,42.33-85.19,9.43-29.66,17.58-55.28,33.92-63,6.75-3.18,14.56-3,23.2.45a3,3,0,1,1-2.28,5.65c-6.29-2.53-11.72-3-16.52-1.31a17.39,17.39,0,0,0-1.8.73c-13.94,6.56-21.71,31-30.71,59.31-9.77,30.75-21.06,66.23-44.06,87.75-7,23.07-14,40.3-21.07,53.08A95.7,95.7,0,0,0,553.3,1109c2.68,1.29,5.45,2.47,8.22,3.5a18.34,18.34,0,0,0,11.16.47c5.4-10.12,10.86-18.42,15-24.68l.69-1c-1.75-.33-3.45-.67-5.09-1a3.05,3.05,0,0,1,1.23-6q4,.82,8,1.53a3,3,0,0,1,2.9.19,3.23,3.23,0,0,1,.49.39c13.79,2.29,26.09,3.32,33,2.66,10.31-.76,12.1-6.82,14.62-23.91a3,3,0,0,1,3.41-2.58H647a3.05,3.05,0,0,1,2.57,3.47c-2.2,15-4.1,27.91-20.14,29.1-.84.08-1.72.14-2.65.18,6.32,12.45,14.33,20.58,23.87,24.17a34.8,34.8,0,0,0,8.36,2,3,3,0,0,1-.33,6.08l-.34,0a41.13,41.13,0,0,1-7.08-1.43c-3,7.06-11.38,29.57-17.31,68a3.05,3.05,0,0,1-1.73,2.29q2.54,5.39,4.61,11l75,202.32,32.23-20.82,0,0c-20.34-27-36.16-52.68-36.31-52.94a3,3,0,1,1,5.19-3.19c.16.25,15.83,25.67,36,52.46a2.89,2.89,0,0,1,.27.44l88.55-57.2c-18.43-44.92-42.46-102.8-54-127.66-17.67-38-57.95-43.67-58.35-43.72a3,3,0,1,1,.77-6c1.79.23,44,6.08,63.11,47.2,11.52,24.77,35.32,82,53.71,126.86l15.33-9.9a3.11,3.11,0,0,1,2.43-.39,3.07,3.07,0,0,1,1.92,1.53l.5.93a52.51,52.51,0,0,0,5.57-7.06,23,23,0,0,0,3.35-9.86s0-.07,0-.1a100.35,100.35,0,0,1,1.62-22.82A94.18,94.18,0,0,0,862.71,1209l-.87-1.52a100,100,0,0,1-11.32-29.91l-2.63-12.92a3,3,0,1,1,6-1.22l2.64,12.92a93.75,93.75,0,0,0,10.63,28.09L868,1206a100.31,100.31,0,0,1,12.22,64.77c.85-1.58,1.74-3.08,2.69-4.52a42.1,42.1,0,0,0,2.42-5.58,63.71,63.71,0,0,1,3.56-8l-12.95-39.31c-2-5.91-3.89-12.18-5.94-19.16-4.08-13.93-18.5-58.8-37.28-70.11l-4.12,6.41a3.06,3.06,0,0,1-2.57,1.4,3.22,3.22,0,0,1-1.09-.2c-.44-.17-44.08-16.79-88.78-21.54a3.06,3.06,0,0,1-2.71-3.35,3,3,0,0,1,3.36-2.71c39.55,4.2,78.24,17.51,88,21l4.3-6.7a19.75,19.75,0,0,0,2.71-15l-2.69-12.37c-.43.33-.87.66-1.31,1a50,50,0,0,1-24.59,8.64h-.29a3.05,3.05,0,0,1-.28-6.09c8.4-.79,15.68-3.32,21.63-7.54,28.42-20.13,20.93-74.95,14.92-119-.08-.56-7.82-55.56-33.88-93.71-6.65-9.73-14.58-17.3-22.92-21.89a61,61,0,0,0-19.78-6.75,3.06,3.06,0,0,1-2.41-2.1,3,3,0,0,1-.11-1.4,3,3,0,0,1,3.5-2.52,67.14,67.14,0,0,1,21.74,7.42c9.18,5.06,17.83,13.28,25,23.8,26.11,38.21,34.19,91.17,34.87,96.33h0c5.77,42.19,12.83,93.91-10.9,119.12l3.43,15.78a25.85,25.85,0,0,1-1.94,16.72c20.16,12.24,34.61,55.1,40,73.61,2,6.92,3.95,13.12,5.87,19l10.88,33c.16-.56.31-1.12.46-1.67,1.46-5.34,3.46-12.62,9.84-11.29,3.71.79,6.9,3.69,8.75,8a21.66,21.66,0,0,1,1.2,12.76,44.68,44.68,0,0,1-2.06,7.46,40.88,40.88,0,0,0-1.35,4.46,224.58,224.58,0,0,0,27.29-26l1.13-1.27c16.29-18.19,30.44-33,38.76-29.07,2.63,1.23,4.2,2.94,4.67,5.08.87,4-2.37,7.8-6.48,12.59-1.11,1.3-2.29,2.69-3.47,4.16-2.9,3.75-5.47,6.85-8.45,10.43-2.54,3.07-5.34,6.44-8.8,10.79-1.62,2-3.22,3.87-4.7,5.58-4.71,5.45-6.48,7.87-5.91,9.2,3.57-.62,15.12-8,24.76-16a110.43,110.43,0,0,0,9.85-9.6c5-5.28,10.16-10.74,16.54-14.57,7.52-4.52,11.43-1.07,12.45.1,3.43,3.91,2.36,11-2.55,17.38,2.12,2.85,2.59,8-1.76,15.18-1.54,2.63-2.79,4.93-3.91,7-3.7,6.78-6.14,11.27-13.64,17.75-.89.87-3,2.46-6.75,5.18-4.27,3.12-12.66,9.27-15.11,12.18,1.87-.09,5.73-1.4,8.19-2.23,1.22-.42,2.45-.84,3.66-1.22,4.34-1.62,8.66-4.88,12.83-8,2.12-1.6,4.12-3.11,6.14-4.42,5.3-3.44,8.85-2.38,10.5-1.44a7.59,7.59,0,0,1,3.61,7c-.47,5.54-5.18,11.67-14.41,18.88-6.1,4.88-9.62,6.43-15.46,9l-2.41,1.07c-2,.81-4.39,1.81-7.09,2.92-9,3.75-21.45,8.88-29.62,11.86a129,129,0,0,0-15.31,6.09l.17.49,108.21,3.44a3,3,0,0,1,2.81,2.14l2.06,6.59h20.39l.24-.18,5.24-3.7c16.25-11.5,34.66-24.54,47-25.83,11.91-1.18,25.75,9.64,34.91,16.84,1.75,1.38,3.33,2.62,4.68,3.6,4.3,3.13,7.19,6.31,8.55,9.27h448.13c1.76-5.86,4.37-9.27,8.44-11.55,2.86-1.6,10.77-4.34,19.41-6.5l25.58-51.37a8.1,8.1,0,0,1,7.3-4.51,8,8,0,0,1,3.62.85,8.15,8.15,0,0,1,3.66,10.91l-20.36,40.9c1.1,0,2.15,0,3.11.06,8.66.68,21.34,7.12,34.77,13.93,4.92,2.5,10,5.06,14.75,7.28h93.54c-3.82-13.63-.54-29.2-.35-30,2.91-9.06,69.67-215.26,79.67-228.79,3.9-5.27,13.32-10.3,28.71-15.35a55.76,55.76,0,0,1-6.85-14.05c-.92.37-1.8.71-2.64,1a19.42,19.42,0,0,1-6.51,1.24c-9,0-14.2-8.18-20-17.38a3.06,3.06,0,0,1,0-3.23.56.56,0,0,0,0-.08l-2.24-3.09h0c1.37-1.27,3.57-2.89,6.1-2.68,3,.25,4.15,2.8,6.52,4.13,5.3,3,13.52-1.58,16.61-3.89,7.6-5.7,10.45-17.69,7.33-30.42a8.09,8.09,0,0,0-4-5.23l-.49-.25c-13.22-6-33.87,21.08-44.23,15a6.43,6.43,0,0,1-1.53-1.22s18.87-13.8,33.62-21.46c10.11-5.25,17.09-3.29,21-1a2.11,2.11,0,0,0,3.18-1.68c.57-7.3.13-13.27-.75-16-1.74-5.37.19-9,2.06-11a3,3,0,0,1,1.77-3.27l.15-.05.29-.09-.41-.12c-21.84-6.54-39-21.89-53-34.36-5.1-4.57-9.78-8.74-14-11.91a40,40,0,0,0-7.64-4.64c-20.68-8.88-29.18-.79-29.26-.7a3,3,0,0,1-4.42-4.2c.45-.47,11.2-11.38,36.09-.7,7,3,14.57,9.77,23.33,17.6,21.1,18.87,50,44.73,91,33a3.05,3.05,0,0,1,1.67,5.87,80.8,80.8,0,0,1-22.27,3.23,74,74,0,0,1-18.13-2.27,3.15,3.15,0,0,1,.62.89c.52,1.2,53.21,119,112.16,119,.55,0,1.08,0,1.63,0,63.36-2.43,94.3,39.34,95.6,41.11a3,3,0,0,1-.2,3.82,2.88,2.88,0,0,1-.48.44,2.39,2.39,0,0,1-.34.21,3,3,0,0,1-1.45.37,3.05,3.05,0,0,1-2.47-1.25c-.3-.41-30.51-40.8-90.43-38.61-.62,0-1.25,0-1.87,0-24.2,0-46.88-17.4-65.75-39.1a61.9,61.9,0,0,1-23.15,13.9c3.2,5,6.54,10.58,9.77,16.78l0,0,0,0c.66,1.27,1.31,2.55,2,3.87,4.16,8.31,4.57,20.69,4.59,21.21a3.05,3.05,0,0,1-3,3.14h-.09a3.06,3.06,0,0,1-3-3c0-.11-.39-11.56-4-18.68-.16-.34-.34-.67-.5-1-6.24,3.07-12.12,4.61-17.6,4.61a26.76,26.76,0,0,1-11-2.31,29.93,29.93,0,0,1-9.26-6.61c-20,6.32-26.08,11.39-27.93,13.9-7.82,10.57-59.46,167.26-78.7,226.75,0,0-4.64,22.27,3.82,34.56l73.69-7.85-5.93-21a3.1,3.1,0,0,1,0-1.76l13.43-41.53c-4.56-37.25-7.45-69.41-7.5-69.92a3.05,3.05,0,0,1,6.08-.55c.07.8,7.06,78.61,16.5,132.4l40.81-4.35a16.25,16.25,0,0,0,13.91-11.91l49.6-186a3,3,0,0,1,5.89,1.58l-49.6,186a22.38,22.38,0,0,1-19.16,16.4l-182.12,19.4a36.93,36.93,0,0,1,7.72,10.65c5.55,11.17,6.59,23.9,2.7,33.24a10,10,0,0,1-3.4,4.39c8.93,3.16,26.26,6.78,59,6.88,49.68.15,181.58.52,199.57-29.71,17.54-29.48,60.15-155.29,60.58-156.56a3.05,3.05,0,0,1,5.78,2c-1.76,5.2-43.25,127.7-61.12,157.73-7.94,13.35-32.21,21.37-64.94,26.13l85.68,36.67.06,0c5.1-1.5,9.32-2.61,13.26-3.65,6.16-1.61,11.48-3,18.52-5.47a12.11,12.11,0,0,0,8-9.9l10.59-80.22a114.54,114.54,0,0,1-.33-70.86l29.05-90.43a3,3,0,0,1,3.41-2.06,2.1,2.1,0,0,1,.42.09,3,3,0,0,1,2,3.83l-29,90.44a108.34,108.34,0,0,0,3,74.42l.23.57,12.78,37c0,.14.08.29.11.43l17,90.95,37.2-8.43a14.5,14.5,0,0,0,11.17-12.29c5.66-44.58,24.74-193.48,33-237.39,9.95-52.89,51.07-69.29,52.81-70a3.05,3.05,0,0,1,2.2,5.7c-.4.15-39.71,16-49,65.4-8.23,43.74-27.3,192.49-32.94,237a20.64,20.64,0,0,1-15.88,17.47l-96.77,21.93c6,9.72,8.23,28.8,8.55,41.27.22,8.34-.09,20.73-3.26,28.07,54.67.39,179.46-2.57,196-21,16.87-18.74,38.79-148.33,48-214.23a3.05,3.05,0,1,1,6.05.85c-1.05,7.49-24.85,175.9-46.41,213l158.3,67.75c-2.6-37.12-19.31-271.11-33.77-349.23-15.58-84.21-57.78-161.41-58.21-162.18a3.06,3.06,0,0,1,1.2-4.15,3.12,3.12,0,0,1,1.34-.36,3,3,0,0,1,2.81,1.56c.43.78,43.1,78.86,58.86,164,15,81.14,32.41,329.06,34.07,353L2717,1743.29A3,3,0,0,1,2718.65,1747.29Zm-835.18-418.51,6,21.17,10.37-1.11c-2.62-15-5.06-31.83-7.2-48.32Zm64.07-303.93c-1.32,8.16-9.43,14.52-12.72,16.8a3,3,0,0,1-1.13,3.39c-.7.51-1.43,1-2.17,1.54l1.32,1.8c2.32,3.19,5.1,7,8.1,11.42a56,56,0,0,0,22.72-13.25C1957.87,1039.51,1952.47,1032.15,1947.54,1024.85Zm-31.86,52.93h0a24.6,24.6,0,0,0,8.48,6.5c6.57,2.92,14.39,2.18,23.27-2.17a256.37,256.37,0,0,0-19.53-30.14c-.5-.69-1-1.34-1.43-2a196.09,196.09,0,0,1-19.46,11.54C1908.14,1065.12,1910.81,1072.16,1915.68,1077.78Zm-875.44,280.67c.89,1.48,1.81,3.07,2.69,4.86,2.39-1.65,4.55-3.25,6.67-4.86Zm-121.76-16c-3.68,1.93-7.26,4-10.64,6.2a105.25,105.25,0,0,0-11.91,9.55l135.2-5-1.11-3.54-108.18-3.44a3,3,0,0,1-2.8-2.09Zm-52.36-23.59L887,1358.16c6.74-6.47,13-11.71,17.54-14.65a139.06,139.06,0,0,1,14.22-8l0,0a138.94,138.94,0,0,1,18.56-7.61c7.94-2.89,20.27-8,29.27-11.73l7-2.89,2.36-1c5.74-2.53,8.62-3.8,14.12-8.21,10.52-8.21,12-12.86,12.11-14.49a1.5,1.5,0,0,0-.55-1.34c-.44-.25-1.8-.27-4.14,1.26-1.85,1.19-3.76,2.64-5.79,4.17-4.31,3.25-9.2,6.94-14.53,8.93-1.32.42-2.5.82-3.67,1.22-5.77,2-10.74,3.64-14.09,1.61a5.58,5.58,0,0,1-2.63-4.15c-.8-3.59,3.58-7.5,18.07-18.1,2.69-2,5.46-4,6.23-4.75,6.79-5.88,8.9-9.76,12.4-16.18,1.15-2.11,2.43-4.46,4-7.2,3.05-5,2.66-7.94,2-8.5-.35-.32-1.63-.15-3.28,1.18-4.5,3.49-7.66,8.22-10.44,12.4a47.79,47.79,0,0,1-5.76,7.58c-7.42,7.36-17,13.12-27.13,19.21l-.56.34a3.05,3.05,0,0,1-3.15-5.23l.57-.34c10.23-6.15,19.07-11.47,26-18.33a43.45,43.45,0,0,0,5-6.61c3-4.57,6.49-9.75,11.75-13.82a10.78,10.78,0,0,1,6.56-2.61,3.2,3.2,0,0,1,.42-.74c3.72-4.67,3.94-8.89,3-9.94-.49-.56-2.27-.36-4.72,1.11-5.67,3.4-10.54,8.55-15.25,13.53a116.78,116.78,0,0,1-10.4,10.12c-7.8,6.44-26.56,21-32.22,16.46-6.17-5.57-.55-12.06,4.88-18.34,1.43-1.65,3-3.44,4.54-5.39,3.49-4.39,6.31-7.79,8.88-10.88,2.94-3.54,5.48-6.6,8.35-10.31,1.24-1.57,2.47-3,3.63-4.35,2.11-2.46,5.29-6.18,5.14-7.34a3.4,3.4,0,0,0-1.27-.84c-4.93-2.27-25,20.22-31.64,27.61l-1.14,1.27c-11.32,12.63-19.59,19.93-31.8,29.77l-.36.24a55.11,55.11,0,0,0,1.43,6.68c1.63,6.43,3.66,14.44.43,23.42a3,3,0,1,1-5.74-2.06c2.6-7.23,1-13.65-.61-19.86a42.37,42.37,0,0,1-1.75-10.22,30.28,30.28,0,0,1,2.15-12.49,39,39,0,0,0,1.84-6.62,15.42,15.42,0,0,0-.81-9.19c-1-2.42-2.66-4-4.41-4.4-.94.51-2.08,4.68-2.69,6.92-.94,3.43-1.9,7-3.72,9.55a45.71,45.71,0,0,0-4.22,8.94,45.44,45.44,0,0,1-2.93,6.6,71,71,0,0,0-8.45,19,48.34,48.34,0,0,0-1.4,7.28c-.58,4.23-1.13,8.22-4.41,13.52A64.13,64.13,0,0,1,866.12,1318.83Zm96.68-18.77,0,.09S962.81,1300.09,962.8,1300.06ZM574,1123.83l25.44,23.59a145.49,145.49,0,0,1,29.08,37.64c6-36.53,13.9-57.83,17-65.19-10.4-4.92-19-14.54-25.56-28.65a213.63,213.63,0,0,1-25.08-2.86l-2.12,3.24A257.65,257.65,0,0,0,574,1123.83ZM788.81,1578.5l-2.18,0c.41,1.57.87,3.12,1.37,4.68C788.73,1582.13,788.88,1580.18,788.81,1578.5Zm151.87-33.36a10.67,10.67,0,0,1-3.66.69,10,10,0,0,1-6.93-3c-.53,9.84-6.35,20.83-14.06,27.39-1.1,2-2.06,3.51-2.56,4.28a24.79,24.79,0,0,1-16.6,11.09,2.17,2.17,0,0,1-.36,0h-.15c-3.57,2.08-8.62,3.18-13.68,3.18a28.84,28.84,0,0,1-11.53-2.21c-5.27-2.36-8.42-6.47-8.86-11.57-2.58.43-5.35,1-8.34,1.57l.37,20.24,220.82-2.77-21.4-58.34-89-.46H946.34a2.7,2.7,0,0,1-.41,0C946.38,1539.89,945.47,1543.57,940.68,1545.14Zm-142.88,27.4a141.37,141.37,0,0,1,19,2c4.56.75,7.56,1.24,11.1.65,8.41-1.27,15.53-2.73,21.81-4,15.41-3.16,25.59-5.26,35.46-.57a3.05,3.05,0,1,1-2.62,5.51c-4.2-2-8.78-2.41-14.22-1.94a1.84,1.84,0,0,1,0,.25c.24,2.87,2,5.07,5.27,6.53,6.65,3,16.51,1.77,20.55-1.26,5-3.53,6.83-12.87,5.1-16.55-2.11-3.71-13.23-10.43-28.38-12.86a3.05,3.05,0,1,1,1-6c17,2.73,29.57,10.32,32.82,16.09,1.85,3.91,1.62,10-.41,15.32a19.57,19.57,0,0,0,4.07-4.53c6.23-9.61,8.62-18.6,6.94-21-5.48-8-19.7-14.63-40.07-18.67a3,3,0,1,1,1.19-6c15.52,3.08,35.74,9.25,43.88,21.16a9.38,9.38,0,0,1,1.6,4.86c2.57-6.56,3-13.25.3-17.46-5.4-8.19-25.88-17.39-43.3-22.22a3.05,3.05,0,1,1,1.63-5.88c1.38.38,2.78.79,4.18,1.23a2.9,2.9,0,0,1,1.17-.31c21.1-1.27,33.54,1.34,37,7.76a69,69,0,0,1,3.19,7.73c3.72,10,7.48,18.84,12.67,17,1.73-.57,1.69-2.38-.16-10.75-.72-3.25-1.54-6.94-2.18-11.24-2.17-14.44-4.87-18.33-9.09-20.47-5.58-2.83-30.91-9.13-41.92-7.82-8,1-21.26,8.4-34.12,15.6-7.17,4-14.58,8.16-21.29,11.32-1.08.49-2.21,1-3.44,1.62-6.61,3.17-15.86,7.58-28.14,9.46C796.58,1534.05,791.08,1558.61,797.8,1572.54Zm119.66-55c-1.13-2.11-6.36-4.25-17.26-4.74a100.22,100.22,0,0,1,19.19,10.29l.4.29.14.1A57,57,0,0,0,917.46,1517.55Zm-132.19,54.9c2.08,0,4-.06,5.88-.06-5.34-14.66-1.4-35.61.74-44.59l-.33,0h-.06c-1.41.09-2.85.15-4.33.17h0a3.27,3.27,0,0,1-.7-.09c-1.77,5.73-2.66,12.85-2.87,25.18A93.65,93.65,0,0,0,785.27,1572.45Zm102-200.74-3.47-6.53a3,3,0,0,1-.58-1.1L858.76,1318,712,1412.8a3,3,0,0,1-4.51-1.5l-76.37-205.88a139.46,139.46,0,0,0-35.77-53.52l-23.95-22.21c-.64,1.47-1.26,3-1.88,4.48-3.44,9.12-3.44,15.65-3.44,15.72a3.05,3.05,0,0,1-3,3.07h0a3,3,0,0,1-3.05-3c0-.31,0-7.66,3.86-18,1.17-2.91,2.39-5.71,3.63-8.42l.05-.11c.6-1.29,1.19-2.55,1.8-3.79-.46,0-.92,0-1.38,0a24.48,24.48,0,0,1-8.49-1.51c-2.95-1.1-5.89-2.35-8.75-3.72A102.12,102.12,0,0,1,531,1102c-9.67,15.74-19.5,23.52-29.78,26.91A79.4,79.4,0,0,0,533,1143.67a3,3,0,0,1-.64,6,2.94,2.94,0,0,1-.65-.07,85.62,85.62,0,0,1-38-19c-10.05,1.4-20.57-.41-31.84-2.36-15-2.59-32-5.54-51.22-.65-120.71,30.79-159.67,450.92-160,455.16l-4,73.23,221.63-94.86A92.07,92.07,0,0,1,451,1533.83l-57.59-141.29a3.05,3.05,0,0,1,5.65-2.3l57.59,141.28a85.74,85.74,0,0,0,18.66,28.21,2.87,2.87,0,0,1,.79.8,85.19,85.19,0,0,0,59.74,24.24H536l245.82-.69a100.26,100.26,0,0,1-4.39-31.09c.28-16.57,1.86-24.61,5-31.93-36.41-2.26-72.37-6.36-107.2-10.33-32.16-3.66-65.41-7.45-98.8-9.77a21.24,21.24,0,0,1-18.87-15.09l-66.06-224.22a3.05,3.05,0,0,1,5.85-1.73l66.06,224.23a15.12,15.12,0,0,0,12.32,10.6c11.35-72.93,22.45-213.74,22.57-215.17a3,3,0,0,1,6.08.48c-.08,1-5.52,70-12.67,136.46a3.21,3.21,0,0,1,.6.62l51,71.72,0,0,6.68,9.39a3.06,3.06,0,0,1,0,3.46q13,1.45,25.87,2.92c14.72,1.68,29.65,3.37,44.72,4.95A145.22,145.22,0,0,0,755,1487.27ZM615.54,1498.14l20.63-8.83-45.41-63.87c-2.81,25.46-5.84,50.07-8.9,69.81Q598.75,1496.5,615.54,1498.14Zm12.56,1.25q8.28.85,16.49,1.76l-4.81-6.76Zm410.42-84a77.14,77.14,0,0,0,3.91-26.57c-.47-16-4.77-23-8.56-29.14-.1-.18-.21-.35-.32-.53l-143.21,5.28,3.45,6.51a3.06,3.06,0,0,1-.69,3.73l-79.39,69.38a3,3,0,0,1,1.71,0c19.57,6.26,80.92-2.83,125.36-10.21C982.84,1426.94,1016.89,1420.08,1038.52,1415.44Zm91.1-26.6a10.3,10.3,0,0,1-3,2.36c-1.49,4.33-3.59,7.78-6.34,9.35a2.36,2.36,0,0,1-.28.12q-.4,6.16-2.83,9a6.53,6.53,0,0,1-4.82,2.31H1112c-6.83,0-8.28-7.93-8.91-11.35-.11-.61-.2-1.13-.3-1.47-.32-1-.62-2.19-.93-3.39a46.8,46.8,0,0,0-2.22-6.91h-15.61c-2.14,1.55-4.43,3.32-6.7,5.07-4.43,3.41-9.46,7.29-14.44,10.46-5.6,3.4-10.22,4.88-16.07,6.76l-.4.12a2.33,2.33,0,0,1-.38.08q-1,3.92-2.33,7.76a3.05,3.05,0,0,1-2.23,2c-12.69,2.74-30,6.3-50.8,10.23l.35,19.13,220.82-2.76-21.41-58.35Zm16.53-40.82c-1.4-1-3-2.31-4.86-3.74-8.39-6.59-21-16.59-30.51-15.57-10.78,1.12-29.27,14.22-44.14,24.74l-5.19,3.67c-1.92,1.42-3.73,2.81-5.47,4.14-3.43,2.62-6.69,5.11-10.66,7.81a65.56,65.56,0,0,1,3.21,19.62,83.57,83.57,0,0,1-1.06,15.81,54.13,54.13,0,0,0,12.22-5.32c4.69-3,9.39-6.61,13.93-10.12,7.39-5.69,13.22-10.19,17.61-10.88,6.49-1,10.31,1.86,12.72,5.76a3.25,3.25,0,0,1,.39.68,40.43,40.43,0,0,1,3.44,9.58c.29,1.11.56,2.17.86,3.14a18.6,18.6,0,0,1,.47,2.17c.6,3.29,1.38,6.34,3,6.34h0a.5.5,0,0,0,.41-.22c.38-.44,2.24-3.23,1-14.61-.3-9.11-1.18-13.91-1.87-16.38-1.42-5.21-14.39-8.27-20.45-8.94a3,3,0,1,1,.66-6.06c2.32.25,22.78,2.78,25.67,13.37,1.12,4,1.84,10.08,2.07,17.58.05.48.1.94.14,1.4,3.16-6.5,4.89-20.43,2.34-29.65-2.15-7.79-19.06-11.65-24.82-12.38a3,3,0,0,1,.77-6c2.68.34,26.31,3.7,29.93,16.8a49.54,49.54,0,0,1,1.34,14.08,53.42,53.42,0,0,0,.48-20.63,3.28,3.28,0,0,1-.18-.88,27.37,27.37,0,0,0-1.3-4.27c-2.76-6.62-9.67-8.51-15.23-10a32.7,32.7,0,0,1-5.31-1.75,3,3,0,1,1,2.65-5.49,30.75,30.75,0,0,0,4.27,1.36c6.11,1.67,15.35,4.19,19.25,13.58a31.31,31.31,0,0,1,1.43,4.42c4,2.08,9.94,4.94,12,5.42,4.08.72,5.56-.17,5.67-.38C1153.22,1355.78,1152.66,1352.76,1146.15,1348Zm574.07,10.43c6.9,3.09,15.92,6.4,28.27,6,4.32-.11,8-.38,10.93-.67l1.51-.16c4-.45,6.23-.91,6.27-.92a2.86,2.86,0,0,1,1.54.09l34.17-3.64c-.13-.24-.24-.48-.36-.72Zm-81.61,3.67q2-1,4.05-2c-1.15.11-2.23.24-3.23.38Zm85,58.82a65.53,65.53,0,0,1-7.6.58,24.19,24.19,0,0,1-2.93-.16c-8-.88-14.8-2-20.81-3-3.91-.64-7.38-1.2-10.52-1.6-.28,4.77-3.09,8.73-7.94,11.14a27.84,27.84,0,0,1-12.1,2.55,26,26,0,0,1-11.65-2.48l-.24,0h-.24a23.48,23.48,0,0,1-16.11-9.84c-.5-.7-1.45-2.09-2.55-3.89a40,40,0,0,1-11.15-14.34l-4,8.09a3,3,0,0,1-.67.88l-10.66,9.79a3,3,0,0,1-2.06.81,3.08,3.08,0,0,1-1.38-.33,3,3,0,0,1-1.65-3l1.55-14.33a2.83,2.83,0,0,1,.29-1l.67-1.34-104.53,2.71,51.36,53.47,203.55-7.21Zm26.66-32.06c-5-15.34-10.32-18.36-11-18.68-11.09-1.23-19.27-5.08-25.11-7.82-1.67-.78-3.19-1.49-4.58-2.05-6.46-2.73-13.56-6.34-20.42-9.82-12.31-6.25-25-12.7-32.49-13.29a38.85,38.85,0,0,0-7.23.31l-.28,0a112.92,112.92,0,0,0-11.87,2.24,3.53,3.53,0,0,1-.54.13c-8.35,2-16.23,4.67-18.94,6.18s-4.65,3.81-6.09,9.8c0,.1,0,.2-.08.3a80,80,0,0,0-1.46,9.27c-.44,4.06-1.06,7.55-1.62,10.63-1.37,7.68-1.36,9.43.05,9.83,4.84,1.52,8-6.82,11.07-16.23a63.35,63.35,0,0,1,2.69-7.38c1.79-3.71,6.67-6.25,14.54-7.62l.08,0a108.2,108.2,0,0,1,19.89-1.15,3.08,3.08,0,0,1,1.09.23c1.28-.45,2.56-.88,3.82-1.29a3.05,3.05,0,1,1,1.87,5.81c-16.11,5.18-34.89,14.55-39.63,22.43-2.2,3.8-1.7,9.65.68,15.4a8.69,8.69,0,0,1,1.3-4c7.18-11.48,25.93-18.05,40.39-21.54a3.05,3.05,0,0,1,1.43,5.93c-18.88,4.55-31.9,11.26-36.67,18.89-1.49,2.28,1.1,10.5,7.27,19.2a18,18,0,0,0,3.33,3.57c-1.86-4.77-2.22-10.1-.74-13.59,2.94-5.76,14.51-13.4,30.35-16.62a3.08,3.08,0,0,1,3.6,2.39,3,3,0,0,1-2.38,3.59c-14,2.85-24.15,9.51-26,13.22-1.36,3.25.63,11.81,5.35,14.81,3.87,2.66,13.23,3.41,19.19.45,2.92-1.46,4.46-3.53,4.57-6.16,0,0,0,0,0-.07-5-.22-9.12.36-12.94,2.37a3,3,0,1,1-2.83-5.4c9.12-4.79,18.75-3.22,33.34-.84,5.94,1,12.66,2.07,20.54,2.93,3.6.44,9.61-.44,17.22-1.56,5.13-.76,11.24-1.66,18.18-2.38a4.06,4.06,0,0,0,1.36-1.17C1752.81,1407.27,1753.91,1400.14,1750.28,1388.88Zm6.94,21.78c4.13-.29,8.49-.49,13.06-.54,2.82-7.6,1.76-18.26-2.81-27.45-3.21-6.46-7.71-11.06-12.12-12.41-2,.14-4.26.25-6.69.31h-.34c2.57,3.54,5.31,8.81,7.77,16.44C1759.18,1396.62,1759.55,1405,1757.22,1410.66Zm279.46,63.3a49.37,49.37,0,0,1,15.24,22.57,48.64,48.64,0,0,1,2,20.15l17.9-4.06a3.13,3.13,0,0,1,1.19-1.54,9.92,9.92,0,0,1,6.84-1.86,7.82,7.82,0,0,1,2.8,1l57.23-13-17.05-91L2111.66,1374l-9,68.51a18.29,18.29,0,0,1-3.6,8.73,16.63,16.63,0,0,1-1.07,1.29,18,18,0,0,1-7.36,4.83c-7.27,2.55-13,4-19,5.62-7.41,2-15.82,4.16-29.35,8.85C2039.93,1472.62,2038.21,1473.29,2036.68,1474Zm-74,27a67.18,67.18,0,0,1,11,34.39h0l6.41,1.31a32.7,32.7,0,0,0,18.69-1.74l10-4a3.1,3.1,0,0,1-.21-.45s0-.11-.05-.16,0-.15-.07-.23,0-.09,0-.13a1.5,1.5,0,0,1,0-.29c0-.11,0-.21,0-.31a2.46,2.46,0,0,1,0-.28c0-.1,0-.21,0-.31a2.76,2.76,0,0,1,.08-.27c0-.09.06-.19.1-.28a1.66,1.66,0,0,1,.13-.27c0-.08.09-.16.14-.24a2.11,2.11,0,0,1,.19-.23,1.43,1.43,0,0,1,.2-.23l.2-.18a2.83,2.83,0,0,1,.28-.2l.08-.07.14-.07.3-.14.31-.1.15,0,36.71-8.32a42.76,42.76,0,0,0-1.42-19.74,43.46,43.46,0,0,0-14.89-21,2.83,2.83,0,0,1-.58-.62c-3.51,1.68-8.25,3.84-17.47,7.43-3.83,1.48-11.79,4.5-22,8C1981.86,1495.33,1972.31,1498.27,1962.72,1501Zm-135,53.48c1.84-1.35,5.08-4.3,10.73-10.36a101.09,101.09,0,0,0,9.5-11.89l.25-.36c7.21-10.42,22.55-17.26,46.9-20.91a3,3,0,0,1,.91,6q-8.08,1.21-14.77,2.92a3,3,0,0,1,.68,6c-7,1.68-11.22,3.72-12.59,6.06a3.89,3.89,0,0,0-.29,3.3c.1.36.93,2,7.52,3,8-5.12,22.82-6.17,38.54-7.27,5.43-.39,11-.78,16.29-1.35,8.26-.89,21.56,1.52,36.1,4.48a61.2,61.2,0,0,0-7.46-25.68,94.42,94.42,0,0,1-18.54,1.9,83.2,83.2,0,0,1-13.66-1.12,103.94,103.94,0,0,1-15.18-3.9c-6.15-1.94-11.46-3.61-19.39-3.87a64.48,64.48,0,0,0-21.82,3.12l-.34.07a3.58,3.58,0,0,1-.55.38c-11.89,6.27-25.87,15.45-30.32,21.8C1832.57,1537.81,1828.46,1549.53,1827.77,1554.46Zm12.54.49c-.17,2.79-.68,11.28.89,15.53.82,2.37,1.65,3,1.82,3.07s1.49-.6,3.11-3.4c1.13-1.82,2.55-7.17,3.91-12.34,3-11.25,6.34-24,12.25-27.77a3,3,0,0,1,1.45-.46c.12-.24.24-.48.38-.72,1.39-2.35,3.74-4.28,7.29-5.9-8.63,3.25-14.7,7.39-18.15,12.37l-.23.33a106.76,106.76,0,0,1-10.07,12.6c-1.38,1.47-2.66,2.82-3.86,4.06A3,3,0,0,1,1840.31,1555Zm15,6.63a80,80,0,0,0,11.47-20.15,8.12,8.12,0,0,1-3.37-3.88c-3,4.79-5.65,14.78-7.51,21.82C1855.74,1560.13,1855.54,1560.86,1855.35,1561.58Zm10.9-.54c.79-.89,1.61-1.76,2.45-2.61a15.82,15.82,0,0,1-1.47.66C1866.89,1559.73,1866.57,1560.38,1866.25,1561Zm-34-2.41,1.74-.05c0-.47,0-.95,0-1.44C1833.47,1557.69,1832.87,1558.18,1832.3,1558.63ZM1954.2,1586a3,3,0,0,1-.94-2.19,222.11,222.11,0,0,0-24.88-1.36c-15.5.36-22.48,3.49-29.86,6.81-1.19.53-2.37,1.06-3.6,1.59a63,63,0,0,0-6.65,3.48c-3.28,1.89-6.82,3.93-10.21,3.93a7.5,7.5,0,0,1-2.29-.36c-2,2.58-7.52,9.15-13.45,9.58a3.06,3.06,0,0,1-.53.81c-4,4.23-7.57,5.21-10,5.21a8.46,8.46,0,0,1-1.9-.21,7.7,7.7,0,0,1-5.72-4.82c-2.59-7.78.83-15.85,8-28,.46-.75.93-1.51,1.41-2.27.71-2.92,1.62-6,2.69-9a5.6,5.6,0,0,1-2.52,1.14l-.45,0a3,3,0,0,1-.52-.06,18,18,0,0,1-1.43,3.08c-3,5.15-6.09,6.37-8.33,6.37a5.74,5.74,0,0,1-.6,0c-2.13-.21-5.06-1.6-7-7.08a26.58,26.58,0,0,1-1.37-7.85l-105.93,2.75,51.37,53.46,203.55-7.21Zm65.83-12.72a77.47,77.47,0,0,0-8.21-36.92l-10.69,4.29a38.74,38.74,0,0,1-22.18,2.06l-6.43-1.32c-15.7-3.23-32-6.57-40.43-5.66-5.35.59-11,1-16.51,1.37-12.24.86-24.81,1.75-32.36,4.69a2.62,2.62,0,0,1,0,.28,1,1,0,0,0,0,.17,3,3,0,0,1-.22,1.89,27.83,27.83,0,0,1-3.9,5.59,55,55,0,0,1,6.36-3.75c7.84-3.92,21.85-7.27,35.67-8.52a3,3,0,0,1,3.31,2.76,3,3,0,0,1-2.75,3.31c-14.93,1.36-27.59,5-33.51,7.91-14.12,7.06-23.85,20.89-30.76,32.16-7.14,12.06-9.11,18.07-7.49,23a1.69,1.69,0,0,0,.55.51,2.21,2.21,0,0,0,.77.3,3.57,3.57,0,0,0,1.54-.1,8.44,8.44,0,0,0,3.08-1.73,8.18,8.18,0,0,1-1.82-2.1c-2.17-3.69-1.62-8.9,1.56-14.68,3.54-6.08,12.42-17.11,19-24.73,9.25-10.79,32.5-16.4,49.6-17.92a3.05,3.05,0,0,1,.55,6.08c-20.7,1.84-39,8.19-45.52,15.81-8.39,9.78-15.56,19.11-18.27,23.76-2.37,4.3-2.4,7.26-1.61,8.57a2.58,2.58,0,0,0,2.43,1.11c2.61,0,6.91-4.2,9.27-7.32a8.3,8.3,0,0,1-1.43-6.33c1.23-7.43,10.93-13.33,11.35-13.58,15-11.18,30.27-16,49.2-15.57a3.05,3.05,0,0,1-.07,6.1H1930c-17.47-.41-31.56,4-45.67,14.53-3.34,2-8.18,6.28-8.71,9.51a2.34,2.34,0,0,0,.58,2.07c1.6,2,2.87,1.78,9.07-1.79a66.39,66.39,0,0,1,7.29-3.8c1.19-.51,2.35-1,3.5-1.55,7.61-3.42,15.49-7,32.22-7.34,10.77-.25,25.65,1.35,40.06,2.89,5,.54,10,1.08,14.89,1.54a61,61,0,0,0,28.61-4.16Zm69.17,1.11a121.69,121.69,0,0,0,.2-28.11c-1.52-15.68-5-25.87-8.14-29.5l-65.08,14.74a83.89,83.89,0,0,1,9.86,44.45Zm-1.25,6.14-7,.17c3.27,3.88,4.71,4,4.76,4C2086.45,1584.38,2087.25,1582.94,2088,1580.49Z" class="color56302a svgShape"></path>
</svg>
